<?xml version="1.0" encoding="UTF-8" standalone="no"?>
<svg
   xmlns:svg="http://www.w3.org/2000/svg"
   xmlns="http://www.w3.org/2000/svg"
   version="1.1"
   width="128"
   height="32">
  <g
     transform="translate(0,-1020.3622)">
    <rect
       width="14"
       height="3"
       x="1032.8617"
       y="-8.5"
       transform="matrix(0,1,-1,0,0,0)"
       style="fill:#f48024;fill-opacity:1;stroke:none" />
    <rect
       width="18"
       height="3"
       x="1028.8616"
       y="-13"
       transform="matrix(0,1,-1,0,0,0)"
       style="fill:#f48024;fill-opacity:1;stroke:none" />
    <rect
       width="16"
       height="3"
       x="1030.8616"
       y="-17.5"
       transform="matrix(0,1,-1,0,0,0)"
       style="fill:#f48024;fill-opacity:1;stroke:none" />
    <rect
       width="22"
       height="3"
       x="1024.8616"
       y="-22"
       transform="matrix(0,1,-1,0,0,0)"
       style="fill:#f48024;fill-opacity:1;stroke:none" />
    <rect
       width="14"
       height="3"
       x="1032.8617"
       y="-26.5"
       transform="matrix(0,1,-1,0,0,0)"
       style="fill:#f48024;fill-opacity:1;stroke:none" />
    <path
       d="m 1,1038.3622 0,10 0,3 3,0 23.999999,0 3,0 0,-3 0,-10 -3,0 0,10 -23.999999,0 0,-10 -3,0 z"
       style="fill:#bcbbbb;fill-opacity:1;stroke:none" />
    <g style="fill:#000000;fill-opacity:1;stroke:none">
      <path
         d="m 43.507526,1042.7584 c 0.912104,0 1.588129,-0.12 2.028077,-0.36 0.439934,-0.24 0.659904,-0.6241 0.659912,-1.1524 -8e-6,-0.544 -0.21595,-0.976 -0.647827,-1.296 -0.431892,-0.3201 -1.143927,-0.6801 -2.136109,-1.08 -0.479985,-0.1919 -0.939945,-0.3878 -1.379883,-0.5878 -0.439944,-0.1999 -0.819948,-0.4359 -1.140014,-0.7079 -0.320071,-0.2719 -0.576052,-0.5999 -0.767945,-0.984 -0.191895,-0.384 -0.287843,-0.856 -0.287841,-1.4161 -2e-6,-1.104 0.407957,-1.98 1.223876,-2.6279 0.815915,-0.648 1.927975,-0.9719 3.336182,-0.972 0.352045,10e-5 0.703973,0.02 1.055786,0.06 0.3518,0.04 0.679802,0.088 0.984009,0.144 0.304191,0.056 0.572257,0.1162 0.804199,0.1801 0.231925,0.064 0.411857,0.1199 0.539795,0.1678 l -0.407959,1.9204 c -0.240243,-0.128 -0.616341,-0.2599 -1.128296,-0.3959 -0.51197,-0.136 -1.127814,-0.204 -1.847534,-0.204 -0.624028,0 -1.168095,0.1239 -1.632202,0.3717 -0.464115,0.2478 -0.69617,0.6359 -0.696167,1.1642 -3e-6,0.272 0.052,0.512 0.156006,0.72 0.104,0.208 0.264034,0.396 0.480102,0.5639 0.216061,0.168 0.484127,0.324 0.8042,0.4681 0.320063,0.144 0.703974,0.2959 1.151733,0.4555 0.592279,0.2241 1.120354,0.4442 1.584229,0.6603 0.463859,0.2161 0.859854,0.4681 1.187988,0.7562 0.328116,0.2881 0.580191,0.6361 0.756225,1.0441 0.176016,0.408 0.264029,0.9078 0.264038,1.4996 -9e-6,1.1519 -0.428109,2.0238 -1.284301,2.6159 -0.856209,0.592 -2.076301,0.888 -3.660279,0.888 -1.104007,0 -1.96802,-0.092 -2.592041,-0.2757 -0.624025,-0.1839 -1.047852,-0.3239 -1.271484,-0.4201 l 0.407959,-1.9196 c 0.255858,0.096 0.663816,0.2396 1.223877,0.4317 0.560055,0.1922 1.303951,0.2882 2.231689,0.2882 z"/>
      <path
         d="m 62.307331,1038.1259 c -1.3e-5,0.9921 -0.144056,1.8883 -0.432129,2.6883 -0.288098,0.8001 -0.69215,1.488 -1.212158,2.064 -0.52003,0.5759 -1.140025,1.0199 -1.859985,1.3319 -0.71998,0.312 -1.503792,0.468 -2.351441,0.468 -0.848151,0 -1.632207,-0.156 -2.352173,-0.468 -0.719974,-0.312 -1.339969,-0.756 -1.859985,-1.3319 -0.520022,-0.576 -0.924074,-1.2639 -1.212158,-2.064 -0.288088,-0.8 -0.43213,-1.6962 -0.432129,-2.6883 -1e-6,-0.9761 0.144041,-1.8681 0.432129,-2.6759 0.288084,-0.8079 0.692136,-1.4998 1.212158,-2.0757 0.520016,-0.5759 1.140011,-1.0199 1.859985,-1.3319 0.719966,-0.312 1.504022,-0.468 2.352173,-0.4681 0.847649,10e-5 1.631461,0.1561 2.351441,0.4681 0.71996,0.312 1.339955,0.756 1.859985,1.3319 0.520008,0.5759 0.92406,1.2678 1.212158,2.0757 0.288073,0.8078 0.432116,1.6998 0.432129,2.6759 z m -2.328369,0 c -1.1e-5,-1.4078 -0.315928,-2.5236 -0.947754,-3.3476 -0.631845,-0.8239 -1.491707,-1.2359 -2.57959,-1.2359 -1.088385,0 -1.948491,0.412 -2.580322,1.2359 -0.63184,0.824 -0.947758,1.9398 -0.947754,3.3476 -4e-6,1.4082 0.315914,2.5243 0.947754,3.3482 0.631831,0.824 1.491937,1.236 2.580322,1.236 1.087883,0 1.947745,-0.412 2.57959,-1.236 0.631826,-0.8239 0.947743,-1.94 0.947754,-3.3482 z"/>
      <path
         d="m 68.831745,1041.7982 c 0.655756,0 1.119623,-0.064 1.391602,-0.1919 0.271965,-0.1279 0.407952,-0.376 0.407959,-0.7441 -7e-6,-0.2881 -0.175911,-0.5402 -0.52771,-0.7562 -0.351813,-0.2161 -0.887823,-0.4601 -1.608032,-0.7321 -0.560063,-0.208 -1.06812,-0.4239 -1.52417,-0.6478 -0.456058,-0.2239 -0.843997,-0.4918 -1.163819,-0.8039 -0.319826,-0.312 -0.567751,-0.684 -0.743774,-1.1162 -0.176027,-0.4321 -0.26404,-0.9521 -0.264038,-1.56 -2e-6,-1.1841 0.439939,-2.1201 1.319824,-2.8081 0.879879,-0.688 2.087886,-1.032 3.624023,-1.032 0.76806,0 1.504021,0.068 2.207886,0.204 0.703848,0.136 1.263784,0.284 1.67981,0.4442 l -0.624024,2.7839 c -0.416024,-0.144 -0.867928,-0.2721 -1.355713,-0.3841 -0.4878,-0.1121 -1.035895,-0.1681 -1.644287,-0.1681 -1.119634,0 -1.679448,0.312 -1.679443,0.936 -5e-6,0.1441 0.02392,0.2721 0.07178,0.3842 0.04785,0.112 0.143794,0.2201 0.287842,0.3241 0.144038,0.104 0.340082,0.216 0.588135,0.3361 0.248041,0.1202 0.563958,0.252 0.947754,0.3955 0.784172,0.2881 1.432243,0.5722 1.944214,0.8522 0.511953,0.2801 0.915884,0.5841 1.211792,0.9122 0.295888,0.3282 0.503895,0.6922 0.624023,1.0921 0.120107,0.3999 0.180165,0.8638 0.180176,1.3916 -1.1e-5,1.248 -0.468028,2.1921 -1.404053,2.8323 -0.936043,0.6401 -2.260017,0.9602 -3.971924,0.9602 -1.120121,0 -2.052127,-0.096 -2.79602,-0.2882 -0.743899,-0.1922 -1.259889,-0.3522 -1.547974,-0.4801 l 0.599854,-2.9041 c 0.607908,0.2402 1.23193,0.4284 1.87207,0.5643 0.640133,0.136 1.272212,0.204 1.89624,0.204 z"/>
      <path
         d="m 76.712605,1028.5978 3.575683,-0.5757 0,3.72 4.296387,0 0,2.9758 -4.296387,0 0,4.4399 c -5e-6,0.752 0.132075,1.352 0.39624,1.8 0.264155,0.448 0.796137,0.672 1.595948,0.672 0.384269,0 0.780387,-0.036 1.188354,-0.1077 0.40795,-0.072 0.779898,-0.1719 1.115845,-0.3003 l 0.503906,2.7839 c -0.432138,0.1763 -0.912118,0.3284 -1.439941,0.4563 -0.52784,0.128 -1.175789,0.1919 -1.943848,0.1919 -0.97608,0 -1.784184,-0.1319 -2.424316,-0.3958 -0.640141,-0.264 -1.152103,-0.6319 -1.535889,-1.1038 -0.383791,-0.4719 -0.651735,-1.0439 -0.803833,-1.7161 -0.152101,-0.6721 -0.228151,-1.4161 -0.228149,-2.232 z"/>
      <path
         d="m 92.297077,1041.87 c 0.352044,0 0.688103,-0.01 1.008179,-0.024 0.32006,-0.016 0.576042,-0.04 0.767944,-0.072 l 0,-2.7121 c -0.144051,-0.032 -0.360115,-0.064 -0.648193,-0.096 -0.288093,-0.032 -0.552009,-0.048 -0.791748,-0.048 -0.335944,0 -0.651984,0.02 -0.94812,0.06 -0.296148,0.04 -0.556158,0.116 -0.78003,0.2278 -0.223881,0.1118 -0.399785,0.2638 -0.52771,0.4559 -0.127934,0.1922 -0.191898,0.4323 -0.191894,0.7203 -4e-6,0.5596 0.187984,0.9474 0.563965,1.1635 0.375971,0.2161 0.89184,0.3241 1.547607,0.3241 z m -0.287842,-10.4641 c 1.056145,0 1.936149,0.12 2.640015,0.36 0.703848,0.24 1.267812,0.584 1.691895,1.032 0.424061,0.448 0.724109,0.992 0.900146,1.6322 0.176014,0.6401 0.264026,1.352 0.264038,2.1357 l 0,7.4399 c -0.512218,0.1123 -1.224254,0.2444 -2.136108,0.3963 -0.911874,0.1518 -2.015999,0.2278 -3.312378,0.2278 -0.815924,0 -1.555791,-0.072 -2.219605,-0.2157 -0.663821,-0.1438 -1.235842,-0.3798 -1.716064,-0.7079 -0.480227,-0.3281 -0.848268,-0.7562 -1.104126,-1.2843 -0.25586,-0.5281 -0.38379,-1.1759 -0.383789,-1.9435 -10e-7,-0.7363 0.147948,-1.3605 0.443847,-1.8724 0.295897,-0.512 0.691893,-0.92 1.187989,-1.2239 0.496091,-0.304 1.064083,-0.5239 1.703979,-0.6599 0.639888,-0.136 1.303828,-0.204 1.991822,-0.204 0.464348,0 0.876457,0.02 1.236328,0.06 0.359855,0.04 0.651847,0.092 0.875976,0.1561 l 0,-0.3362 c -8e-6,-0.6079 -0.183968,-1.0958 -0.55188,-1.4638 -0.367927,-0.3679 -1.007941,-0.5518 -1.920044,-0.5519 -0.607915,10e-5 -1.20789,0.044 -1.799926,0.1319 -0.592045,0.088 -1.104129,0.2119 -1.536255,0.3721 l -0.455567,-2.8807 c 0.207518,-0.064 0.467283,-0.1319 0.779297,-0.2039 0.312009,-0.072 0.652096,-0.136 1.020264,-0.1919 0.36816,-0.056 0.756221,-0.1039 1.164184,-0.144 0.407954,-0.04 0.819941,-0.06 1.235962,-0.06 z"/>
      <path
         d="m 100.61885,1028.5978 3.57569,-0.5757 0,3.72 4.29638,0 0,2.9758 -4.29638,0 0,4.4399 c -1e-5,0.752 0.13207,1.352 0.39624,1.8 0.26415,0.448 0.79613,0.672 1.59595,0.672 0.38427,0 0.78038,-0.036 1.18835,-0.1077 0.40795,-0.072 0.7799,-0.1719 1.11584,-0.3003 l 0.50391,2.7839 c -0.43214,0.1763 -0.91212,0.3284 -1.43994,0.4563 -0.52784,0.128 -1.17579,0.1919 -1.94385,0.1919 -0.97608,0 -1.78418,-0.1319 -2.42431,-0.3958 -0.64014,-0.264 -1.15211,-0.6319 -1.53589,-1.1038 -0.38379,-0.4719 -0.65174,-1.0439 -0.80384,-1.7161 -0.1521,-0.6721 -0.22815,-1.4161 -0.22815,-2.232 z"/>
      <path
         d="m 115.00362,1041.7982 c 0.65576,0 1.11962,-0.064 1.3916,-0.1919 0.27197,-0.1279 0.40795,-0.376 0.40796,-0.7441 -1e-5,-0.2881 -0.17591,-0.5402 -0.52771,-0.7562 -0.35181,-0.2161 -0.88782,-0.4601 -1.60803,-0.7321 -0.56006,-0.208 -1.06812,-0.4239 -1.52417,-0.6478 -0.45606,-0.2239 -0.844,-0.4918 -1.16382,-0.8039 -0.31983,-0.312 -0.56775,-0.684 -0.74377,-1.1162 -0.17603,-0.4321 -0.26404,-0.9521 -0.26404,-1.56 0,-1.1841 0.43994,-2.1201 1.31982,-2.8081 0.87988,-0.688 2.08789,-1.032 3.62403,-1.032 0.76805,0 1.50402,0.068 2.20788,0.204 0.70385,0.136 1.26379,0.284 1.67981,0.4442 l -0.62402,2.7839 c -0.41603,-0.144 -0.86793,-0.2721 -1.35572,-0.3841 -0.4878,-0.1121 -1.03589,-0.1681 -1.64428,-0.1681 -1.11964,0 -1.67945,0.312 -1.67945,0.936 0,0.1441 0.0239,0.2721 0.0718,0.3842 0.0478,0.112 0.1438,0.2201 0.28784,0.3241 0.14404,0.104 0.34009,0.216 0.58814,0.3361 0.24804,0.1202 0.56396,0.252 0.94775,0.3955 0.78417,0.2881 1.43224,0.5722 1.94422,0.8522 0.51195,0.2801 0.91588,0.5841 1.21179,0.9122 0.29589,0.3282 0.50389,0.6922 0.62402,1.0921 0.12011,0.3999 0.18017,0.8638 0.18018,1.3916 -1e-5,1.248 -0.46803,2.1921 -1.40406,2.8323 -0.93604,0.6401 -2.26001,0.9602 -3.97192,0.9602 -1.12012,0 -2.05213,-0.096 -2.79602,-0.2882 -0.7439,-0.1922 -1.25989,-0.3522 -1.54797,-0.4801 l 0.59985,-2.9041 c 0.60791,0.2402 1.23193,0.4284 1.87207,0.5643 0.64013,0.136 1.27221,0.204 1.89624,0.204 z"/>
    </g>
  </g>
</svg>
